<?xml version="1.0" standalone="no"?>
<!DOCTYPE svg PUBLIC "-//W3C//DTD SVG 20010904//EN"
 "http://www.w3.org/TR/2001/REC-SVG-20010904/DTD/svg10.dtd">
<svg version="1.0" xmlns="http://www.w3.org/2000/svg"
 width="300.000000pt" height="300.000000pt" viewBox="0 0 300.000000 300.000000"
 preserveAspectRatio="xMidYMid meet">
<metadata>
Created by potrace 1.11, written by Peter Selinger 2001-2013
</metadata>
<g transform="translate(0.000000,300.000000) scale(0.100000,-0.100000)"
fill="#000000" stroke="none">
<path d="M1300 2854 c-160 -21 -374 -98 -521 -187 -216 -133 -410 -350 -520
-584 -98 -207 -149 -473 -129 -678 13 -133 32 -232 65 -335 28 -85 103 -257
124 -282 6 -7 29 -40 51 -73 119 -181 338 -369 540 -462 97 -45 224 -87 331
-110 118 -25 400 -25 519 0 561 121 971 527 1091 1080 33 150 33 401 0 546
-35 157 -127 387 -177 442 -8 8 -14 19 -14 23 0 15 -110 153 -171 215 -322
324 -732 464 -1189 405z m1072 -719 c43 -44 78 -84 78 -90 0 -13 -1212 -1225
-1225 -1225 -14 0 -675 664 -675 679 0 6 41 52 91 103 l91 91 247 -247 246
-246 520 520 c438 438 521 517 534 507 9 -7 51 -48 93 -92z"/>
</g>
</svg>
